<svg width="40" height="40" viewBox="0 0 40 40" fill="none" xmlns="http://www.w3.org/2000/svg">
<rect width="40.001" height="40" rx="8" fill="white"/>
<path d="M19.3621 15.8663C21.0218 14.5289 24.1459 14.6623 26.4548 15.6726C28.6532 16.6344 29.2948 18.1228 28.2896 19.8025C28.0233 20.2445 27.6564 20.6305 27.2139 20.9546C26.9447 21.1528 28.9612 21.4724 27.8604 21.3173C26.7596 21.1621 21.8094 19.656 21.8094 19.656C21.8094 19.656 19.1904 18.8087 15.4498 17.0944C11.7091 15.3801 11.1255 15.8338 12.0882 13.621C13.0509 11.4083 16.3534 9.15125 16.3534 9.15125L21.0575 4.84925L26.0581 6.55076L26.3176 9.17525L22.2504 9.40204L21.1306 8.49723" fill="#063660"/>
<path d="M25.9875 19.2191C24.464 18.3579 30.9327 18.0773 30.9327 18.0773L31.0495 18.9216C31.0495 18.9216 31.1438 23.0256 30.9327 23.6033C30.7216 24.181 23.559 21.6882 24.0046 21.6575C24.4501 21.6269 27.511 20.0803 25.9875 19.2191Z" fill="#063660"/>
<path d="M11.508 15.5441C11.508 15.5441 11.8318 13.5587 12.3146 13.2182C12.7974 12.8777 14.287 15.6458 14.287 15.6458L13.5216 16.2341L11.508 15.5441Z" fill="#063660"/>
<path d="M20.6418 24.1336C18.9821 25.471 15.8581 25.3376 13.5491 24.3273C11.3507 23.3655 10.7091 21.877 11.7143 20.1974C11.9806 19.7554 12.3475 19.3694 12.79 19.0453C13.0592 18.8471 11.0427 18.5275 12.1435 18.6826C13.2443 18.8377 18.1945 20.3439 18.1945 20.3439C18.1945 20.3439 20.8135 21.1912 24.5542 22.9055C28.2948 24.6197 28.8784 24.1661 27.9157 26.3788C26.953 28.5916 23.6505 30.8486 23.6505 30.8486L18.9464 35.1506L13.9458 33.4491L13.6863 30.8246L17.7535 30.5978L18.8733 31.5027" fill="#042547"/>
<path d="M14.0164 20.781C15.5399 21.6423 9.07124 21.9229 9.07124 21.9229L8.95441 21.0785C8.95441 21.0785 8.86015 16.9745 9.07123 16.3968C9.28231 15.8191 16.4449 18.3119 15.9994 18.3426C15.5538 18.3732 12.4929 19.9198 14.0164 20.781Z" fill="#042547"/>
<path d="M28.4959 24.4558C28.4959 24.4558 28.1721 26.4412 27.6893 26.7817C27.2066 27.1222 25.7169 24.3541 25.7169 24.3541L26.4824 23.7658L28.4959 24.4558Z" fill="#042547"/>
</svg>
