<svg width="132" height="40" viewBox="0 0 132 40" fill="none" xmlns="http://www.w3.org/2000/svg">
<rect width="40.001" height="40" rx="8" fill="white"/>
<path d="M19.3562 15.8662C21.0159 14.5288 24.14 14.6622 26.449 15.6725C28.6473 16.6343 29.2889 18.1228 28.2838 19.8024C28.0174 20.2444 27.6506 20.6304 27.208 20.9545C26.9388 21.1527 28.9554 21.4723 27.8546 21.3172C26.7538 21.162 21.8036 19.6559 21.8036 19.6559C21.8036 19.6559 19.1846 18.8086 15.4439 17.0943C11.7032 15.38 11.1197 15.8337 12.0824 13.621C13.0451 11.4082 16.3476 9.15116 16.3476 9.15116L21.0516 4.84915L26.0522 6.55067L26.3118 9.17516L22.2445 9.40194L21.1247 8.49714" fill="#063660"/>
<path d="M25.9836 19.219C24.4601 18.3578 30.9288 18.0772 30.9288 18.0772L31.0456 18.9216C31.0456 18.9216 31.1399 23.0255 30.9288 23.6033C30.7177 24.181 23.5551 21.6882 24.0006 21.6575C24.4462 21.6268 27.5071 20.0803 25.9836 19.219Z" fill="#063660"/>
<path d="M11.5041 15.5441C11.5041 15.5441 11.8279 13.5586 12.3107 13.2181C12.7934 12.8776 14.2831 15.6457 14.2831 15.6457L13.5176 16.234L11.5041 15.5441Z" fill="#063660"/>
<path d="M20.6438 24.1336C18.9841 25.471 15.86 25.3376 13.551 24.3273C11.3527 23.3655 10.7111 21.8771 11.7162 20.1974C11.9826 19.7554 12.3494 19.3694 12.792 19.0453C13.0612 18.8471 11.0446 18.5275 12.1454 18.6826C13.2462 18.8378 18.1964 20.3439 18.1964 20.3439C18.1964 20.3439 20.8154 21.1912 24.5561 22.9055C28.2968 24.6198 28.8803 24.1661 27.9176 26.3789C26.9549 28.5916 23.6524 30.8487 23.6524 30.8487L18.9484 35.1507L13.9478 33.4491L13.6882 30.8247L17.7555 30.5979L18.8753 31.5027" fill="#0F4690"/>
<path d="M14.0164 20.7808C15.5399 21.642 9.07124 21.9226 9.07124 21.9226L8.95441 21.0782C8.95441 21.0782 8.86015 16.9743 9.07123 16.3966C9.28231 15.8188 16.4449 18.3117 15.9994 18.3423C15.5538 18.373 12.4929 19.9196 14.0164 20.7808Z" fill="#0F4690"/>
<path d="M28.4959 24.4558C28.4959 24.4558 28.1721 26.4412 27.6893 26.7817C27.2066 27.1222 25.7169 24.3541 25.7169 24.3541L26.4824 23.7658L28.4959 24.4558Z" fill="#0F4690"/>
<path d="M49.5267 32V7.94353H60.3351V11.1962H53.3892V18.6504H59.8947V21.7336H53.3892V32H49.5267ZM61.7865 32V7.94353H65.6491V32H61.7865ZM71.1762 32V11.1962H66.907V7.94353H79.3079V11.1962H75.0387V32H71.1762ZM86.023 32.4066C84.6451 32.4066 83.4479 32.0339 82.4315 31.2885C81.415 30.5431 80.6244 29.2668 80.0597 27.4598C79.5176 25.6527 79.2465 23.1567 79.2465 19.9718C79.2465 16.7868 79.5176 14.2908 80.0597 12.4838C80.6244 10.6767 81.415 9.40047 82.4315 8.65506C83.4479 7.90964 84.6451 7.53694 86.023 7.53694C87.2202 7.53694 88.2818 7.83059 89.2079 8.41788C90.134 9.00517 90.8682 9.98776 91.4103 11.3656C91.9524 12.7435 92.2348 14.6296 92.2573 17.024L88.6997 17.1595C88.6093 14.7426 88.3609 13.0598 87.9543 12.1111C87.5477 11.1624 86.9152 10.688 86.0569 10.688C85.4696 10.688 84.9613 10.9139 84.5322 11.3656C84.103 11.8174 83.7642 12.6193 83.5157 13.7713C83.2898 14.9007 83.1769 16.4819 83.1769 18.5148V21.4287C83.1769 23.4391 83.2898 25.0202 83.5157 26.1722C83.7642 27.3016 84.103 28.1035 84.5322 28.5779C84.9839 29.0296 85.5035 29.2555 86.0907 29.2555C86.9491 29.2555 87.5703 28.7812 87.9543 27.8325C88.3609 26.8838 88.6093 25.2122 88.6997 22.8179L92.2573 22.9195C92.2122 25.3591 91.9072 27.2678 91.3425 28.6456C90.8004 30.0235 90.0663 30.9948 89.1402 31.5595C88.214 32.1242 87.175 32.4066 86.023 32.4066ZM92.3161 32L97.1613 7.94353H102.311L107.19 32H103.26L102.176 26.2061H97.1613L96.1109 32H92.3161ZM97.7034 23.1228H101.634L99.6686 11.84L97.7034 23.1228ZM108.278 32V7.94353H112.141V28.7473H118.985V32H108.278ZM120.273 32V7.94353H124.136V28.7473H130.98V32H120.273Z" fill="#1C1C1C"/>
</svg>
