<svg width="132" height="40" viewBox="0 0 132 40" fill="none" xmlns="http://www.w3.org/2000/svg">
<rect width="40.001" height="40" rx="8" fill="white"/>
<path d="M19.3621 15.8663C21.0218 14.5289 24.1459 14.6623 26.4548 15.6726C28.6532 16.6344 29.2948 18.1228 28.2896 19.8025C28.0233 20.2445 27.6564 20.6305 27.2139 20.9546C26.9447 21.1528 28.9612 21.4724 27.8604 21.3173C26.7596 21.1621 21.8094 19.656 21.8094 19.656C21.8094 19.656 19.1904 18.8087 15.4498 17.0944C11.7091 15.3801 11.1255 15.8338 12.0882 13.621C13.0509 11.4083 16.3534 9.15125 16.3534 9.15125L21.0575 4.84925L26.0581 6.55076L26.3176 9.17525L22.2504 9.40204L21.1306 8.49723" fill="#063660"/>
<path d="M25.9875 19.2191C24.464 18.3579 30.9327 18.0773 30.9327 18.0773L31.0495 18.9216C31.0495 18.9216 31.1438 23.0256 30.9327 23.6033C30.7216 24.181 23.559 21.6882 24.0046 21.6575C24.4501 21.6269 27.511 20.0803 25.9875 19.2191Z" fill="#063660"/>
<path d="M11.508 15.5441C11.508 15.5441 11.8318 13.5587 12.3146 13.2182C12.7974 12.8777 14.287 15.6458 14.287 15.6458L13.5216 16.2341L11.508 15.5441Z" fill="#063660"/>
<path d="M20.6418 24.1336C18.9821 25.471 15.8581 25.3376 13.5491 24.3273C11.3507 23.3655 10.7091 21.877 11.7143 20.1974C11.9806 19.7554 12.3475 19.3694 12.79 19.0453C13.0592 18.8471 11.0427 18.5275 12.1435 18.6826C13.2443 18.8377 18.1945 20.3439 18.1945 20.3439C18.1945 20.3439 20.8135 21.1912 24.5542 22.9055C28.2948 24.6197 28.8784 24.1661 27.9157 26.3788C26.953 28.5916 23.6505 30.8486 23.6505 30.8486L18.9464 35.1506L13.9458 33.4491L13.6863 30.8246L17.7535 30.5978L18.8733 31.5027" fill="#042547"/>
<path d="M14.0164 20.781C15.5399 21.6423 9.07124 21.9229 9.07124 21.9229L8.95441 21.0785C8.95441 21.0785 8.86015 16.9745 9.07123 16.3968C9.28231 15.8191 16.4449 18.3119 15.9994 18.3426C15.5538 18.3732 12.4929 19.9198 14.0164 20.781Z" fill="#042547"/>
<path d="M28.4959 24.4558C28.4959 24.4558 28.1721 26.4412 27.6893 26.7817C27.2066 27.1222 25.7169 24.3541 25.7169 24.3541L26.4824 23.7658L28.4959 24.4558Z" fill="#042547"/>
<path d="M49.5267 32V7.94353H60.3351V11.1962H53.3892V18.6504H59.8947V21.7336H53.3892V32H49.5267ZM61.7865 32V7.94353H65.6491V32H61.7865ZM71.1762 32V11.1962H66.907V7.94353H79.3079V11.1962H75.0387V32H71.1762ZM86.023 32.4066C84.6451 32.4066 83.4479 32.0339 82.4315 31.2885C81.415 30.5431 80.6244 29.2668 80.0597 27.4598C79.5176 25.6527 79.2465 23.1567 79.2465 19.9718C79.2465 16.7868 79.5176 14.2908 80.0597 12.4838C80.6244 10.6767 81.415 9.40047 82.4315 8.65506C83.4479 7.90964 84.6451 7.53694 86.023 7.53694C87.2202 7.53694 88.2818 7.83059 89.2079 8.41788C90.134 9.00517 90.8682 9.98776 91.4103 11.3656C91.9524 12.7435 92.2348 14.6296 92.2573 17.024L88.6997 17.1595C88.6093 14.7426 88.3609 13.0598 87.9543 12.1111C87.5477 11.1624 86.9152 10.688 86.0569 10.688C85.4696 10.688 84.9613 10.9139 84.5322 11.3656C84.103 11.8174 83.7642 12.6193 83.5157 13.7713C83.2898 14.9007 83.1769 16.4819 83.1769 18.5148V21.4287C83.1769 23.4391 83.2898 25.0202 83.5157 26.1722C83.7642 27.3016 84.103 28.1035 84.5322 28.5779C84.9839 29.0296 85.5035 29.2555 86.0907 29.2555C86.9491 29.2555 87.5703 28.7812 87.9543 27.8325C88.3609 26.8838 88.6093 25.2122 88.6997 22.8179L92.2573 22.9195C92.2122 25.3591 91.9072 27.2678 91.3425 28.6456C90.8004 30.0235 90.0663 30.9948 89.1402 31.5595C88.214 32.1242 87.175 32.4066 86.023 32.4066ZM92.3161 32L97.1613 7.94353H102.311L107.19 32H103.26L102.176 26.2061H97.1613L96.1109 32H92.3161ZM97.7034 23.1228H101.634L99.6686 11.84L97.7034 23.1228ZM108.278 32V7.94353H112.141V28.7473H118.985V32H108.278ZM120.273 32V7.94353H124.136V28.7473H130.98V32H120.273Z" fill="#1C1C1C"/>
</svg>
