<svg width="32" height="32" viewBox="0 0 32 32" fill="none" xmlns="http://www.w3.org/2000/svg">
<path d="M15.3562 11.866C17.0159 10.5286 20.14 10.662 22.449 11.6723C24.6473 12.6341 25.2889 14.1225 24.2838 15.8022C24.0174 16.2442 23.6506 16.6302 23.208 16.9543C22.9388 17.1525 24.9554 17.4721 23.8546 17.317C22.7538 17.1618 17.8036 15.6557 17.8036 15.6557C17.8036 15.6557 15.1846 14.8084 11.4439 13.0941C7.70321 11.3798 7.11966 11.8335 8.08237 9.62074C9.04508 7.40796 12.3476 5.15095 12.3476 5.15095L17.0516 0.84894L22.0522 2.55046L22.3118 5.17494L18.2445 5.40173L17.1247 4.49692" fill="#063660"/>
<path d="M21.9816 15.2188C20.4581 14.3576 26.9268 14.077 26.9268 14.077L27.0436 14.9213C27.0436 14.9213 27.1379 19.0253 26.9268 19.603C26.7157 20.1807 19.5532 17.6879 19.9987 17.6572C20.4442 17.6266 23.5052 16.08 21.9816 15.2188Z" fill="#063660"/>
<path d="M7.50212 11.5438C7.50212 11.5438 7.8259 9.55836 8.3087 9.21786C8.7915 8.87735 10.2812 11.6455 10.2812 11.6455L9.51569 12.2338L7.50212 11.5438Z" fill="#063660"/>
<path d="M16.6418 20.1333C14.9821 21.4707 11.8581 21.3373 9.54907 20.327C7.35074 19.3652 6.70912 17.8767 7.71428 16.1971C7.98064 15.7551 8.34746 15.369 8.79002 15.045C9.0592 14.8468 7.04267 14.5271 8.14348 14.6823C9.24428 14.8374 14.1945 16.3436 14.1945 16.3436C14.1945 16.3436 16.8135 17.1909 20.5542 18.9052C24.2948 20.6194 24.8784 20.1658 23.9157 22.3785C22.953 24.5913 19.6505 26.8483 19.6505 26.8483L14.9464 31.1503L9.94583 29.4488L9.68628 26.8243L13.7535 26.5975L14.8733 27.5023" fill="#0F4690"/>
<path d="M10.0164 16.7805C11.5399 17.6417 5.07124 17.9223 5.07124 17.9223L4.95441 17.0779C4.95441 17.0779 4.86015 12.974 5.07123 12.3963C5.28231 11.8186 12.4449 14.3114 11.9994 14.342C11.5538 14.3727 8.49287 15.9193 10.0164 16.7805Z" fill="#0F4690"/>
<path d="M24.4959 20.4555C24.4959 20.4555 24.1721 22.4409 23.6893 22.7814C23.2066 23.1219 21.7169 20.3538 21.7169 20.3538L22.4824 19.7655L24.4959 20.4555Z" fill="#0F4690"/>
</svg>
