<svg width="13" height="15" viewBox="0 0 13 15" fill="none" xmlns="http://www.w3.org/2000/svg">
<path d="M10.5309 14.4C9.71423 15.1917 8.82257 15.0667 7.96423 14.6917C7.0559 14.3083 6.22256 14.2917 5.26423 14.6917C4.06423 15.2083 3.4309 15.0583 2.71423 14.4C-1.35243 10.2083 -0.752435 3.825 3.86423 3.59167C4.98923 3.65 5.77257 4.20833 6.4309 4.25833C7.41423 4.05833 8.3559 3.48333 9.4059 3.55833C10.6642 3.65833 11.6142 4.15833 12.2392 5.05833C9.63923 6.61667 10.2559 10.0417 12.6392 11C12.1642 12.25 11.5476 13.4917 10.5226 14.4083L10.5309 14.4ZM6.34756 3.54167C6.22256 1.68333 7.7309 0.15 9.46423 0C9.7059 2.15 7.51423 3.75 6.34756 3.54167Z" fill="#EEEEEE"/>
</svg>
