<svg width="20" height="22" viewBox="0 0 20 22" fill="none" xmlns="http://www.w3.org/2000/svg">
<path d="M9.33869 10.51L0.0820312 20.183C0.185971 20.5504 0.372766 20.8893 0.628137 21.1737C0.883507 21.4581 1.20069 21.6805 1.55544 21.8238C1.9102 21.9672 2.29312 22.0278 2.67495 22.001C3.05678 21.9742 3.4274 21.8606 3.75848 21.669L14.1739 15.7524L9.33869 10.51Z" fill="#EA4335"/>
<path d="M18.699 8.86466L14.1948 6.29163L9.125 10.7291L14.2155 15.7375L18.6852 13.192C19.0811 12.9852 19.4128 12.6743 19.6442 12.2929C19.8757 11.9115 19.998 11.4742 19.998 11.0283C19.998 10.5825 19.8757 10.1452 19.6442 9.76381C19.4128 9.3824 19.0811 9.07145 18.6852 8.86466H18.699Z" fill="#FBBC04"/>
<path d="M0.0827991 1.82959C0.0268445 2.03591 -0.00099633 2.2488 2.72263e-05 2.46253V19.5519C0.000586889 19.7655 0.0284009 19.9782 0.0827991 20.1848L9.65675 10.7595L0.0827991 1.82959Z" fill="#4285F4"/>
<path d="M9.40767 11.0076L14.1946 6.29499L3.79297 0.350873C3.40166 0.122286 2.9566 0.00122036 2.50311 4.9205e-06C1.95542 -0.00107762 1.4224 0.17649 0.985299 0.50564C0.548197 0.83479 0.230989 1.29747 0.0820312 1.82314L9.40767 11.0076Z" fill="#063660"/>
</svg>
