<svg width="32" height="32" viewBox="0 0 32 32" fill="none" xmlns="http://www.w3.org/2000/svg">
<path d="M14.6568 19.7401C15.9971 18.8479 17.0146 17.548 17.5589 16.0327C18.1033 14.5174 18.1455 12.8671 17.6794 11.326C17.2134 9.78483 16.2637 8.43458 14.9708 7.4749C13.678 6.51522 12.1106 5.99707 10.5006 5.99707C8.89046 5.99707 7.3231 6.51522 6.03026 7.4749C4.73743 8.43458 3.78775 9.78483 3.32166 11.326C2.85558 12.8671 2.89783 14.5174 3.44217 16.0327C3.98652 17.548 5.00405 18.8479 6.3443 19.7401C3.91992 20.6337 1.84943 22.2872 0.4418 24.4539C0.36782 24.5638 0.316433 24.6874 0.290627 24.8174C0.264821 24.9474 0.265109 25.0812 0.291477 25.2111C0.317844 25.3409 0.369764 25.4643 0.444219 25.5739C0.518673 25.6835 0.614177 25.7773 0.725178 25.8497C0.83618 25.9221 0.960466 25.9717 1.09081 25.9956C1.22116 26.0196 1.35496 26.0174 1.48445 25.9892C1.61393 25.9609 1.73652 25.9073 1.84507 25.8312C1.95363 25.7552 2.046 25.6584 2.1168 25.5464C3.02479 24.1498 4.26725 23.0023 5.73135 22.2078C7.19545 21.4134 8.83481 20.9973 10.5006 20.9973C12.1663 20.9973 13.8057 21.4134 15.2698 22.2078C16.7339 23.0023 17.9763 24.1498 18.8843 25.5464C19.031 25.7644 19.2575 25.9159 19.515 25.9681C19.7725 26.0204 20.0402 25.9692 20.2603 25.8257C20.4804 25.6822 20.6351 25.4578 20.691 25.2011C20.747 24.9444 20.6997 24.676 20.5593 24.4539C19.1517 22.2872 17.0812 20.6337 14.6568 19.7401ZM5.00055 13.5001C5.00055 12.4123 5.32312 11.3489 5.92747 10.4445C6.53182 9.54001 7.3908 8.83506 8.39579 8.41878C9.40078 8.00249 10.5067 7.89358 11.5735 8.10579C12.6404 8.31801 13.6204 8.84184 14.3896 9.61103C15.1588 10.3802 15.6827 11.3602 15.8949 12.4271C16.1071 13.494 15.9982 14.5999 15.5819 15.6049C15.1656 16.6099 14.4607 17.4688 13.5562 18.0732C12.6517 18.6775 11.5883 19.0001 10.5006 19.0001C9.04237 18.9985 7.64438 18.4185 6.61329 17.3874C5.5822 16.3563 5.0022 14.9583 5.00055 13.5001ZM31.2681 25.8376C31.0459 25.9825 30.7754 26.0331 30.5159 25.9785C30.2564 25.9239 30.0292 25.7685 29.8843 25.5464C28.9774 24.149 27.7351 23.0009 26.2707 22.2068C24.8063 21.4127 23.1664 20.9979 21.5006 21.0001C21.2353 21.0001 20.981 20.8948 20.7934 20.7072C20.6059 20.5197 20.5006 20.2653 20.5006 20.0001C20.5006 19.7349 20.6059 19.4805 20.7934 19.293C20.981 19.1055 21.2353 19.0001 21.5006 19.0001C22.3105 18.9993 23.1103 18.8197 23.8428 18.474C24.5753 18.1283 25.2224 17.6251 25.7378 17.0003C26.2533 16.3756 26.6244 15.6447 26.8246 14.8598C27.0249 14.075 27.0493 13.2557 26.8962 12.4603C26.743 11.6649 26.4161 10.9132 25.9388 10.2589C25.4615 9.60449 24.8455 9.06362 24.1349 8.6749C23.4243 8.28619 22.6367 8.05921 21.8282 8.0102C21.0197 7.96118 20.2104 8.09134 19.4581 8.39136C19.3354 8.44439 19.2033 8.47229 19.0697 8.47342C18.9361 8.47455 18.8036 8.44889 18.68 8.39794C18.5565 8.34699 18.4444 8.2718 18.3504 8.1768C18.2564 8.0818 18.1824 7.96893 18.1328 7.84485C18.0831 7.72077 18.0589 7.588 18.0614 7.45439C18.064 7.32077 18.0933 7.18903 18.1476 7.06693C18.2019 6.94483 18.2802 6.83486 18.3777 6.74352C18.4753 6.65218 18.5902 6.58131 18.7156 6.53511C20.4374 5.84843 22.3525 5.82372 24.0915 6.46575C25.8304 7.10778 27.27 8.37106 28.1325 10.0119C28.9951 11.6527 29.2194 13.5548 28.7622 15.3513C28.305 17.1477 27.1987 18.7112 25.6568 19.7401C28.0812 20.6337 30.1517 22.2872 31.5593 24.4539C31.7041 24.676 31.7548 24.9466 31.7002 25.2061C31.6456 25.4655 31.4901 25.6927 31.2681 25.8376Z" fill="#063660"/>
</svg>
